<?xml version="1.0" encoding="UTF-8" standalone="no"?>
<!-- Created with Inkscape (http://www.inkscape.org/) -->

<svg
   xmlns:dc="http://purl.org/dc/elements/1.1/"
   xmlns:cc="http://creativecommons.org/ns#"
   xmlns:rdf="http://www.w3.org/1999/02/22-rdf-syntax-ns#"
   xmlns:svg="http://www.w3.org/2000/svg"
   xmlns="http://www.w3.org/2000/svg"
   xmlns:sodipodi="http://sodipodi.sourceforge.net/DTD/sodipodi-0.dtd"
   xmlns:inkscape="http://www.inkscape.org/namespaces/inkscape"
   width="283.05927"
   height="224.86252"
   id="svg3689"
   version="1.1"
   inkscape:version="0.48.3.1 r9886"
   sodipodi:docname="New document 2">
  <defs
     id="defs3691" />
  <sodipodi:namedview
     id="base"
     pagecolor="#ffffff"
     bordercolor="#666666"
     borderopacity="1.0"
     inkscape:pageopacity="0.0"
     inkscape:pageshadow="2"
     inkscape:zoom="0.35"
     inkscape:cx="167.95821"
     inkscape:cy="-201.85445"
     inkscape:document-units="px"
     inkscape:current-layer="layer1"
     showgrid="false"
     fit-margin-top="0"
     fit-margin-left="0"
     fit-margin-right="0"
     fit-margin-bottom="0"
     inkscape:window-width="1861"
     inkscape:window-height="1056"
     inkscape:window-x="59"
     inkscape:window-y="24"
     inkscape:window-maximized="1" />
  <metadata
     id="metadata3694">
    <rdf:RDF>
      <cc:Work
         rdf:about="">
        <dc:format>image/svg+xml</dc:format>
        <dc:type
           rdf:resource="http://purl.org/dc/dcmitype/StillImage" />
        <dc:title></dc:title>
      </cc:Work>
    </rdf:RDF>
  </metadata>
  <g
     inkscape:label="Layer 1"
     inkscape:groupmode="layer"
     id="layer1"
     transform="translate(-207.04179,-105.64521)">
    <g
       id="g2139"
       transform="matrix(-2.2655394,-0.0253151,-0.02361842,1.3402784,491.30513,90.758605)"
       inkscape:export-filename="/home/luxem/Dropbox/Collector-Webpage/images/header.png"
       inkscape:export-xdpi="46.406799"
       inkscape:export-ydpi="46.406799"
       style="stroke:#000000;stroke-width:0.61837268;stroke-miterlimit:2.5;stroke-opacity:1;stroke-dasharray:none">
      <path
         inkscape:connector-curvature="0"
         d="m 64,12.717949 44.51282,6.153846 0,69.743591 L 65.435897,85.128206 64,12.717949 z"
         id="path1389"
         style="fill:#1b2b65;fill-opacity:1;fill-rule:evenodd;stroke:#000000;stroke-width:0.61837268;stroke-miterlimit:2.5;stroke-opacity:1;stroke-dasharray:none" />
      <path
         inkscape:connector-curvature="0"
         d="m 59.487179,17.435897 c 2.390327,-0.369399 4.645319,-1.550803 5.952973,-2.732206 l 42.034268,5.944464 -5.11545,3.556973 -42.871791,-6.769231 z"
         id="path2119"
         sodipodi:nodetypes="ccccc"
         style="fill:#e6e6e6;fill-opacity:1;fill-rule:evenodd;stroke:#000000;stroke-width:0.61837268;stroke-miterlimit:2.5;stroke-opacity:1;stroke-dasharray:none" />
      <path
         d="m 57.846154,15.667084 44.537596,6.147575 -0.0469,69.672522 -43.055532,-3.483627 z"
         id="path2117"
         style="fill:#483e37;fill-opacity:1;fill-rule:evenodd;stroke:#000000;stroke-width:0.61837268;stroke-miterlimit:2.5;stroke-opacity:1;stroke-dasharray:none"
         inkscape:connector-curvature="0"
         sodipodi:nodetypes="ccccc" />
      <path
         d="m 102.33405,21.80913 c 2.9059,0.193784 4.45207,-0.81553 6.17902,-2.524894 l -0.0101,69.331149 -6.09976,2.871794 -0.0692,-69.678049 z"
         id="path2121"
         sodipodi:nodetypes="cccccc"
         style="fill:#1c2f6f;fill-opacity:1;fill-rule:evenodd;stroke:#000000;stroke-width:0.61837268;stroke-miterlimit:2.5;stroke-opacity:1;stroke-dasharray:none"
         inkscape:connector-curvature="0" />
    </g>
    <g
       id="g2871"
       transform="matrix(-2.1946825,-0.02452337,-0.02981395,1.6918567,507.12741,95.667405)"
       inkscape:export-filename="/home/luxem/Dropbox/Collector-Webpage/images/header.png"
       inkscape:export-xdpi="46.406799"
       inkscape:export-ydpi="46.406799"
       style="stroke:#000000;stroke-width:0.55919844;stroke-miterlimit:2.5;stroke-opacity:1;stroke-dasharray:none">
      <path
         inkscape:connector-curvature="0"
         d="m 54.358975,12.717949 54.153845,6.153846 0,69.743591 -49.846154,-2.666667 -4.307691,-73.23077 z"
         id="path2873"
         sodipodi:nodetypes="ccccc"
         style="fill:#1b6d1d;fill-opacity:1;fill-rule:evenodd;stroke:#000000;stroke-width:0.55919844;stroke-miterlimit:2.5;stroke-opacity:1;stroke-dasharray:none" />
      <path
         inkscape:connector-curvature="0"
         d="m 51.282051,17.846153 c 2.390327,-0.369399 3.209421,-1.755931 4.517075,-2.937334 l 51.675294,5.739336 -5.11545,3.556973 -51.076919,-6.358975 z"
         id="path2875"
         sodipodi:nodetypes="ccccc"
         style="fill:#e6e6e6;fill-opacity:1;fill-rule:evenodd;stroke:#000000;stroke-width:0.55919844;stroke-miterlimit:2.5;stroke-opacity:1;stroke-dasharray:none" />
      <path
         d="m 47.179488,15.447115 54.991982,6.353753 0,69.686313 -54.787552,-3.484316 -0.20443,-72.55575 z"
         id="path2877"
         sodipodi:nodetypes="ccccc"
         style="fill:#248019;fill-opacity:1;fill-rule:evenodd;stroke:#000000;stroke-width:0.55919844;stroke-miterlimit:2.5;stroke-opacity:1;stroke-dasharray:none"
         inkscape:connector-curvature="0" />
      <path
         d="m 102.08405,21.80913 c 2.87049,-0.405643 4.69541,-0.258051 6.32425,-2.229613 l 0.0986,69.035868 -6.35083,2.871794 -0.072,-69.678049 z"
         id="path2879"
         sodipodi:nodetypes="cccccc"
         style="fill:#248019;fill-opacity:1;fill-rule:evenodd;stroke:#000000;stroke-width:0.76918536;stroke-miterlimit:2.5;stroke-opacity:1;stroke-dasharray:none"
         inkscape:connector-curvature="0" />
    </g>
    <g
       id="g2881"
       transform="matrix(-2.238691,-0.02501511,-0.02845267,1.6146077,531.79841,112.29997)"
       inkscape:export-filename="/home/luxem/Dropbox/Collector-Webpage/images/header.png"
       inkscape:export-xdpi="46.406799"
       inkscape:export-ydpi="46.406799"
       style="stroke:#000000;stroke-width:0.56676495;stroke-miterlimit:2.5;stroke-opacity:1;stroke-dasharray:none">
      <path
         d="m 45.634215,10.666667 62.769225,8.205128 0,69.743591 -62.454722,-2.461539 z"
         id="path2883"
         sodipodi:nodetypes="ccccc"
         style="fill:#a20000;fill-opacity:1;fill-rule:evenodd;stroke:#000000;stroke-width:0.56676495;stroke-miterlimit:2.5;stroke-opacity:1;stroke-dasharray:none"
         inkscape:connector-curvature="0" />
      <path
         inkscape:connector-curvature="0"
         d="m 41.846154,15.589743 c 2.390327,-0.369399 4.850447,-1.140546 6.158101,-2.321949 l 59.470165,7.380361 -5.11545,3.556973 -60.512816,-8.615385 z"
         id="path2885"
         sodipodi:nodetypes="ccccc"
         style="fill:#e6e6e6;fill-opacity:1;fill-rule:evenodd;stroke:#000000;stroke-width:0.56676495;stroke-miterlimit:2.5;stroke-opacity:1;stroke-dasharray:none" />
      <path
         d="m 38.358974,14.216346 63.749996,7.58361 0,69.687225 -62.728361,-1e-6 -1.021635,-77.270834 z"
         id="path2887"
         sodipodi:nodetypes="ccccc"
         style="fill:#a20101;fill-opacity:1;fill-rule:evenodd;stroke:#000000;stroke-width:0.56676495;stroke-miterlimit:2.5;stroke-opacity:1;stroke-dasharray:none"
         inkscape:connector-curvature="0" />
      <path
         d="m 102.08405,21.80913 c 2.93166,0.193784 4.71416,-0.526779 6.29248,-2.498341 l -0.0688,69.304596 -6.15384,2.871794 z"
         id="path2889"
         sodipodi:nodetypes="ccccc"
         style="fill:#b90000;fill-opacity:1;fill-rule:evenodd;stroke:#000000;stroke-width:0.56676495;stroke-miterlimit:2.5;stroke-opacity:1;stroke-dasharray:none"
         inkscape:connector-curvature="0" />
    </g>
    <path
       style="fill:#a20101;fill-opacity:1;stroke:#000000;stroke-width:1.02528691;stroke-miterlimit:2.5;stroke-opacity:1;stroke-dasharray:none;stroke-dashoffset:0"
       d="m 299.83,225.43473 0.85961,-0.18237 0.14163,-11.39073 c 0.0778,-6.26495 0.41362,-24.13189 0.7462,-39.70441 l 0.63716,-28.72403 -2.66209,-0.21725 c -3.3709,-0.2751 -6.86755,-1.58505 -8.65023,-3.0893 -0.76572,-0.64614 -1.47031,-1.176 -1.56575,-1.17751 -0.0955,-1e-4 -0.38014,16.61228 -0.63258,36.91955 l -0.45901,36.92236 5.11394,5.35997 c 2.81268,2.94799 5.22588,5.38384 5.36271,5.41301 0.13682,0.0292 0.63559,-0.029 1.10842,-0.12927 z"
       id="path4235"
       inkscape:connector-curvature="0"
       inkscape:export-filename="/home/luxem/Dropbox/Collector-Webpage/images/header.png"
       inkscape:export-xdpi="46"
       inkscape:export-ydpi="46"
       sodipodi:nodetypes="cccscsscscsccc" />
    <path
       style="fill:#483737;fill-opacity:1;stroke:#000000;stroke-width:1.02023113;stroke-miterlimit:2.5;stroke-opacity:1;stroke-dasharray:none;stroke-dashoffset:0"
       d="m 257.67444,151.79429 0.44308,-33.89278 -1.88612,-0.0289 c -3.22299,-0.0492 -6.33267,-1.14613 -10.35463,-3.65255 -0.1559,-0.0972 -0.45754,13.14103 -0.67031,29.41823 l -0.38683,29.59483 6.0141,6.22397 c 3.30781,3.4232 6.10047,6.22529 6.20595,6.22692 0.10559,0.002 0.39112,-15.24882 0.63478,-33.88985 z"
       id="path4233"
       inkscape:connector-curvature="0"
       inkscape:export-filename="/home/luxem/Dropbox/Collector-Webpage/images/header.png"
       inkscape:export-xdpi="46"
       inkscape:export-ydpi="46" />
    <path
       style="fill:#1a1a1a"
       d="m 231.56912,164.83639 c -1.42561,-0.0184 -4.18429,6.23677 -13.18225,23.25598 l -11.34508,23.90046 8.74902,12.29307 c 5.08972,7.15149 10.34494,13.78503 10.85376,15.35121 0.5088,1.56613 0.83691,7.8816 0.72907,14.03435 l -0.1959,11.1868 28.53245,32.82467 28.53245,32.8248 82.26062,-11.6197 -1.7e-4,0 c 45.24335,-6.3908 82.44236,-11.8109 82.66448,-12.0448 0.22218,-0.2338 0.85794,-7.0761 1.41289,-15.2051 0.93709,-13.72685 1.17657,-14.81576 3.36093,-15.28186 1.29354,-0.27601 9.90336,-1.29239 19.13296,-2.25849 9.22956,-0.96615 16.89107,-1.87243 17.02554,-2.01398 0.13448,-0.14158 -11.30064,-23.89669 -17.13862,-35.76166 -6.31744,-12.83938 -10.83254,-26.7183 -19.35656,-38.33383 -2.87975,-3.92417 -10.5138,-10.28744 -10.5138,-10.28744 l -0.49492,11.52965 -74.83406,7.21247 -77.07655,7.91763 -42.05054,-37.12424 c -13.74691,-12.13644 -5.66933,-2.51377 -5.36792,-3.81705 0.35262,-1.52473 0.23239,-4.36302 0.20372,-8.66405 m 14.87212,130.94755 -26.88563,-31.61562 -0.76568,-9.49104 0.52381,-9.71559 2.14716,2.55479 c 1.43016,1.70165 8.4698,11.34484 15.88775,21.25327 l 12.43147,14.43766 8.6033,-16.76257 c 5.45757,-10.63342 9.59659,-25.79176 12.10102,-32.45478 l 4.55344,-12.11462 2.75875,10.38211 c 9.78376,36.81959 16.39628,60.63544 17.06401,61.45827 1.36891,1.68688 103.95563,-10.46765 138.09138,-16.36115 l 4.24025,-0.73205 -1.82366,14.60596 -1.39444,13.04926 -77.98137,11.1818 c -43.43781,6.2286 -79.85127,10.8318 -81.18254,10.8939 -1.77333,0.082 -7.75057,-7.8938 -28.36896,-30.5696 z m 47.92996,-17.33181 c -2.39155,-6.85753 -7.36,-22.85399 -11.30111,-35.45929 -3.9411,-12.60533 -7.63216,-22.76363 -8.20235,-22.57401 -0.57018,0.18963 -6.5441,12.84951 -13.27539,28.13312 -6.73128,15.28363 -12.36877,27.92527 -12.52776,28.09264 -0.39633,0.41717 -46.48448,-60.34424 -48.05425,-63.21812 -1.0721,-1.96276 -1.34874,-5.00912 8.42631,-23.81513 6.3105,-12.14068 12.22456,-21.67283 11.59594,-22.26874 -5.7e-4,0.0222 10.75314,9.19969 23.46051,20.92249 33.8879,31.26235 30.69954,28.78048 36.51109,28.42089 2.7674,-0.17129 36.50475,-3.40881 74.97193,-7.19459 -0.15039,-0.14035 84.00474,-7.38496 84.00474,-7.38496 l 16.23833,33.04343 c 9.12271,18.56381 16.21519,34.05279 15.9672,34.31381 -0.54117,0.56964 -71.02142,9.25802 -121.77874,15.01689 -18.83034,2.13644 -32.52452,4.10073 -34.37214,4.33768 -1.84767,0.23695 -9.79019,1.93829 -12.0314,1.67255 l -5.66884,-0.67214 z"
       id="path3131-2"
       inkscape:connector-curvature="0"
       sodipodi:nodetypes="cscsssccccccssscaaccccsscscccsscsscssscccssssssscsscssccssssscss"
       inkscape:export-filename="/home/luxem/Dropbox/Collector-Webpage/images/header.png"
       inkscape:export-xdpi="46.406799"
       inkscape:export-ydpi="46.406799" />
    <path
       style="fill:#c8c4b7;stroke:#000000;stroke-width:1.11921859;stroke-miterlimit:2.5;stroke-opacity:1;stroke-dasharray:none"
       d="m 298.8075,324.59503 c 28.59489,-3.7537 146.45433,-20.3167 146.7921,-20.629 0.0389,-0.036 0.31407,-2.2577 0.61132,-4.9371 0.29723,-2.67935 1.00284,-8.69146 1.56808,-13.36023 0.56523,-4.66876 0.95831,-8.55428 0.87353,-8.63451 -0.0848,-0.0802 -3.63061,0.40897 -7.87963,1.08706 -29.33874,4.68183 -99.0554,13.30821 -122.32212,15.1355 -3.58885,0.28187 -7.50862,0.59331 -8.71062,0.69212 -1.45891,0.1199 -2.3959,0.0113 -2.81868,-0.32624 -0.9878,-0.7891 -2.90711,-7.47021 -14.24923,-49.60176 -3.09022,-11.479 -5.71072,-20.87171 -5.82332,-20.87273 -0.28963,-0.002 -4.94418,12.74277 -8.02062,21.96252 -3.81316,11.42754 -6.21365,17.15421 -11.72415,27.96919 -2.71838,5.33513 -5.07847,9.83628 -5.2447,10.00256 -0.53497,0.5352 -12.75879,-14.19776 -21.54958,-25.97299 -4.69619,-6.29056 -8.71382,-11.61541 -8.92807,-11.83302 -0.43686,-0.44364 -0.43182,15.37218 0.006,17.83862 0.20602,1.16156 2.8069,4.38045 13.53585,16.75238 13.36004,15.40588 27.2094,31.04143 36.09456,40.74983 l 4.79316,5.2373 1.84599,-0.019 c 1.01529,-0.011 6.03297,-0.5687 11.15037,-1.2405 z"
       id="path3151-8"
       inkscape:connector-curvature="0"
       inkscape:export-filename="/home/luxem/Dropbox/Collector-Webpage/images/header.png"
       inkscape:export-xdpi="46.406799"
       inkscape:export-ydpi="46.406799" />
    <path
       style="fill:#cccccc;stroke:#cccccc;stroke-width:0.39261439;stroke-opacity:1"
       d="m 321.69013,289.59378 c 9.9623,-1.70098 19.02418,-2.84143 81.35396,-10.23852 37.92526,-4.50083 65.21871,-7.87929 76.30291,-9.44501 2.34147,-0.3308 4.26135,-0.78697 4.26634,-1.01383 0.0139,-0.61737 -31.11003,-66.45649 -31.81919,-67.31036 -0.0327,-0.0394 -36.10444,3.40334 -80.15934,7.65059 -44.05489,4.24725 -81.28645,7.77849 -81.26608,7.70711 0,0 -3.95848,-2.13606 -22.40992,-19.0953 -11.3796,-10.45926 -33.15983,-29.27711 -34.67024,-30.51027 -0.57136,-0.46647 -0.70163,1.63267 -6.40285,12.3369 -10.34859,19.42981 -14.01361,27.50236 -14.15806,31.18421 -0.0655,1.66933 0.19597,2.11788 5.25713,9.01996 7.26306,9.90484 22.36791,29.8678 32.7047,43.22333 9.63957,12.45472 10.07335,12.99445 10.2744,12.78457 0.0795,-0.0831 2.43413,-5.30626 5.23227,-11.60701 8.17783,-18.41465 16.48408,-36.65622 18.51146,-40.65349 1.58295,-3.12093 1.96164,-3.62029 2.39792,-3.1619 1.05926,1.11305 3.86786,9.29916 12.29945,35.8488 3.15111,9.92236 6.90133,21.43003 8.33378,25.57256 2.9245,8.45745 2.29413,7.74355 7.22947,8.18766 1.66678,0.15002 4.01379,-0.0178 6.72189,-0.48 z"
       id="path3153-2"
       inkscape:connector-curvature="0"
       inkscape:export-filename="/home/luxem/Dropbox/Collector-Webpage/images/header.png"
       inkscape:export-xdpi="46.406799"
       inkscape:export-ydpi="46.406799"
       sodipodi:nodetypes="cssscscssscsscssssssc" />
    <path
       style="fill:#483e37;fill-opacity:1;stroke:#000000;stroke-width:0.38632393;stroke-miterlimit:2.5;stroke-opacity:1;stroke-dasharray:none;stroke-dashoffset:0"
       d="m 294.70517,111.50386 c 24.86373,-1.81681 46.08138,-3.24167 47.15026,-3.16636 1.0689,0.0755 2.24739,0.27657 2.61884,0.44736 0.54859,0.25223 0.67887,0.12289 0.69372,-0.68918 0.0158,-0.87551 -0.13852,-0.99942 -1.24664,-0.99712 -0.6957,9.7e-4 -23.25333,1.53428 -50.12805,3.40636 -41.00605,2.85643 -48.77773,3.03902 -47.90752,3.44237 0.57033,0.26431 1.87485,1.09794 2.56078,1.08064 0.68598,-0.0161 21.39489,-1.70731 46.25861,-3.52407 z"
       id="path4231"
       inkscape:connector-curvature="0"
       inkscape:export-filename="/home/luxem/Dropbox/Collector-Webpage/images/header.png"
       inkscape:export-xdpi="46"
       inkscape:export-ydpi="46"
       sodipodi:nodetypes="scsccsccs" />
  </g>
</svg>
